<?xml version="1.0" encoding="windows-1252"?>
<!-- Icon made by Freepik (www.freepik.com) from FlatIcon (www.flaticon.com) is licensed by CC 3.0 BY -->
<!-- Generator: Adobe Illustrator 19.0.0, SVG Export Plug-In . SVG Version: 6.00 Build 0)  -->
<svg version="1.1" id="Capa_1" xmlns="http://www.w3.org/2000/svg" xmlns:xlink="http://www.w3.org/1999/xlink" x="0px" y="0px" viewBox="0 0 512 512" style="enable-background:new 0 0 512 512;" xml:space="preserve">
<rect x="155.18" y="307.18" style="fill:#C75E0B;" width="40.788" height="98.49"/>
<polygon style="fill:#0CC27C;" points="285.342,352.052 231.51,271.577 265.257,271.577 212.18,192.232 246.682,192.232   175.576,85.934 104.469,192.232 138.971,192.232 85.895,271.577 119.641,271.577 65.809,352.052 "/>
<rect x="316.03" y="307.18" style="fill:#C75E0B;" width="40.788" height="98.49"/>
<polygon style="fill:#0C967C;" points="446.191,352.052 392.359,271.577 426.106,271.577 373.029,192.232 407.531,192.232   336.425,85.934 265.318,192.232 299.82,192.232 246.744,271.577 280.49,271.577 226.658,352.052 "/>
<rect x="232.16" y="315" style="fill:#D66D1C;" width="47.687" height="112.67"/>
<rect x="255.95" y="315" style="fill:#C75E0B;" width="23.891" height="112.67"/>
<polygon style="fill:#39B54A;" points="384.333,366.333 321.396,274.273 360.85,274.274 298.796,183.506 339.134,183.506   256,61.905 172.866,183.506 213.204,183.506 151.15,274.273 190.605,274.273 127.667,366.333 "/>
<polygon style="fill:#83E276;" points="172.866,183.506 213.204,183.506 151.15,274.273 190.605,274.273 127.667,366.333   255.952,366.333 256,61.905 "/>
<polygon style="fill:#0CC27C;" points="321.396,274.273 360.85,274.274 298.796,183.506 339.134,183.506 256,61.905 256,61.905   255.952,366.333 384.333,366.333 "/>
<g>
</g>
<g>
</g>
<g>
</g>
<g>
</g>
<g>
</g>
<g>
</g>
<g>
</g>
<g>
</g>
<g>
</g>
<g>
</g>
<g>
</g>
<g>
</g>
<g>
</g>
<g>
</g>
<g>
</g>
</svg>
